# Alias OBJ Model File
# Exported from SketchUp, (c) 2000-2012 Trimble Navigation Limited
# File units = meters

mtllib Small Wall.mtl

g Mesh1 Model

usemtl FrontColor
v 27.6956 0 -5.29431
vt -1090.38 208.438
vn 0 -1 -0
v 27.6956 0 -7.27431
vt -1090.38 286.39
v 64.4056 0 -7.27431
vt -2535.65 286.39
v 64.4056 0 -5.29431
vt -2535.65 208.438
f 1/1/1 2/2/1 3/3/1 4/4/1 

vt -286.39 0
vn -1 0 -0
vt -208.438 0
v 27.6956 12.95 -5.29431
vt -208.438 509.843
v 27.6956 12.95 -7.27431
vt -286.39 509.843
f 2/5/2 1/6/2 5/7/2 6/8/2 

vt 1090.38 0
vn 0 0 1
vt 2535.65 0
v 64.4056 12.95 -5.29431
vt 2535.65 509.843
vt 1090.38 509.843
f 1/9/3 4/10/3 7/11/3 5/12/3 

vt 208.438 0
vn 1 0 -0
vt 286.39 0
v 64.4056 12.95 -7.27431
vt 286.39 509.843
vt 208.438 509.843
f 4/13/4 3/14/4 8/15/4 7/16/4 

vt -2535.65 0
vn 0 0 -1
vt -1090.38 0
vt -1090.38 509.843
vt -2535.65 509.843
f 3/17/5 2/18/5 6/19/5 8/20/5 

vt 1090.38 286.39
vn 0 1 -0
vt 1090.38 208.438
vt 2535.65 208.438
vt 2535.65 286.39
f 6/21/6 5/22/6 7/23/6 8/24/6 

